<?xml version="1.0" standalone="no"?>
<!DOCTYPE svg PUBLIC "-//W3C//DTD SVG 20010904//EN"
 "http://www.w3.org/TR/2001/REC-SVG-20010904/DTD/svg10.dtd">
<svg version="1.0" xmlns="http://www.w3.org/2000/svg"
 width="850.000000pt" height="532.000000pt" viewBox="0 0 850.000000 532.000000"
 preserveAspectRatio="xMidYMid meet">

<g transform="translate(0.000000,532.000000) scale(0.100000,-0.100000)"
fill="#000000" stroke="none">
<path d="M0 3455 c0 -1537 2 -1865 13 -1865 7 0 30 -31 50 -69 34 -64 37 -76
37 -150 l0 -81 30 0 c16 0 40 -5 54 -11 19 -9 28 -9 38 2 16 17 42 138 34 159
-4 9 12 35 39 65 25 27 45 53 45 57 0 4 6 8 14 8 17 0 28 24 20 45 -10 25 90
95 136 95 19 0 37 28 53 81 3 9 21 24 41 33 21 10 36 24 36 35 0 9 15 34 34
54 19 21 38 56 46 84 16 63 41 123 52 123 4 0 8 7 8 15 0 11 18 15 82 17 81 3
82 3 89 32 5 16 12 32 16 35 14 10 33 60 33 86 0 14 8 29 20 35 30 16 46 66
52 153 3 43 10 83 17 90 6 6 11 28 11 49 0 39 19 79 53 110 15 14 17 29 14
115 -1 54 -6 104 -11 111 -9 15 16 113 42 167 l20 39 -24 54 c-13 30 -24 63
-24 73 0 10 -5 21 -10 24 -5 3 -10 19 -10 36 0 16 5 29 10 29 6 0 10 -15 10
-34 0 -19 14 -60 31 -92 35 -67 35 -108 -1 -181 -23 -48 -25 -75 -8 -103 10
-15 10 -27 0 -53 -8 -22 -10 -55 -6 -91 6 -51 -6 -110 -26 -126 -21 -17 -40
-60 -40 -90 0 -20 -4 -40 -8 -46 -15 -16 -31 -87 -35 -150 -2 -41 -10 -70 -24
-90 -12 -16 -24 -48 -28 -69 -4 -22 -15 -49 -25 -60 -10 -11 -25 -35 -34 -53
l-17 -32 -79 0 c-77 0 -80 -1 -86 -25 -3 -14 -10 -25 -15 -25 -5 0 -9 -9 -9
-20 0 -10 -4 -29 -9 -42 -5 -13 -12 -34 -15 -48 -6 -29 -48 -80 -65 -80 -6 0
-11 -16 -11 -35 0 -23 -5 -35 -13 -35 -22 0 -63 -42 -77 -80 -15 -39 -27 -50
-53 -50 -20 0 -47 -22 -47 -39 0 -5 -10 -11 -21 -13 -24 -3 -35 -18 -44 -62
-4 -19 -15 -32 -35 -39 -17 -6 -30 -17 -30 -24 0 -7 -4 -13 -10 -13 -5 0 -10
-6 -10 -14 0 -7 -7 -19 -15 -26 -9 -7 -13 -20 -10 -30 5 -17 -24 -121 -46
-161 -10 -19 -17 -21 -70 -16 l-59 5 0 -33 c0 -34 -21 -83 -40 -95 -7 -4 -16
-29 -21 -56 -5 -27 -16 -54 -25 -61 -14 -10 -14 -23 -5 -95 15 -121 26 -181
35 -196 13 -21 -4 -151 -22 -169 -13 -13 -17 -45 -19 -187 -1 -94 -5 -213 -8
-263 l-5 -93 690 0 c581 0 690 2 690 14 0 7 7 27 15 42 14 27 15 27 15 6 0
-12 6 -25 14 -28 8 -3 12 -12 9 -20 -5 -12 51 -14 403 -11 412 4 470 8 490 34
8 12 32 14 113 11 94 -3 105 -5 119 -26 l14 -22 1869 0 c1239 0 1869 3 1869
10 0 6 6 10 13 10 20 0 67 57 67 80 0 15 7 20 25 20 14 0 25 5 25 10 0 6 6 17
13 24 10 12 15 12 30 -1 15 -15 19 -14 37 2 20 18 20 17 20 -8 0 -25 3 -27 44
-27 43 0 45 1 48 32 3 27 8 33 36 39 32 6 32 6 32 -32 0 -38 1 -39 36 -39 34
0 70 -21 57 -34 -4 -3 3 -6 15 -6 15 0 22 6 22 20 0 11 5 20 10 20 6 0 10 18
10 41 0 33 3 40 16 35 9 -3 36 -6 60 -6 40 0 44 -2 44 -24 0 -19 6 -25 31 -28
l31 -5 -5 44 c-3 28 -1 43 7 43 14 0 36 -46 37 -79 1 -15 3 -19 5 -11 4 12 23
15 107 13 132 -2 157 3 157 31 0 17 2 18 10 6 6 -10 10 -11 10 -2 0 20 21 14
46 -13 26 -28 54 -33 54 -10 0 22 43 19 58 -5 13 -21 42 -17 42 5 0 7 6 15 13
18 9 3 12 -3 10 -22 -2 -14 2 -37 9 -50 l13 -24 264 -1 c282 -1 275 -2 329 51
14 14 29 20 39 16 11 -4 14 -3 9 5 -5 8 2 10 22 6 17 -4 32 -1 36 5 10 15 52
14 76 -1 17 -11 22 -10 30 2 6 10 10 11 10 3 0 -7 11 -13 25 -13 18 0 25 5 25
20 0 20 -24 26 -88 20 -13 -1 -32 7 -42 18 -17 18 -17 19 17 20 18 1 38 4 42
6 4 3 17 -4 29 -14 12 -11 30 -20 42 -20 17 0 20 6 20 49 0 51 -9 61 -51 61
-15 0 -19 7 -19 34 0 41 -14 53 -36 31 -13 -13 -14 -21 -6 -41 9 -18 9 -24 -1
-24 -8 0 -7 -4 3 -10 12 -8 9 -10 -12 -10 -16 0 -28 5 -28 11 0 7 -9 19 -20
29 -10 9 -24 29 -30 44 -5 15 -15 24 -20 21 -6 -4 -8 -11 -5 -16 4 -5 -5 -14
-18 -20 -13 -6 -30 -26 -37 -45 -11 -28 -17 -33 -37 -28 -13 4 -29 2 -36 -3
-6 -6 -33 -11 -59 -12 -37 -1 -48 2 -48 14 0 9 -9 15 -25 15 -14 0 -25 5 -25
10 0 6 -13 10 -28 10 -15 0 -32 4 -38 9 -5 5 -22 11 -39 13 -25 2 -31 9 -38
41 -5 22 -15 37 -24 37 -8 0 -21 6 -28 14 -17 16 -76 6 -129 -21 -17 -9 -65
-19 -106 -22 -69 -6 -75 -8 -74 -27 1 -17 -4 -21 -21 -20 -12 2 -27 6 -33 10
-7 4 -12 1 -12 -9 0 -9 -4 -13 -10 -10 -5 3 -10 1 -10 -4 0 -14 -87 -14 -95 0
-4 6 -26 9 -49 8 -23 -2 -46 0 -51 3 -10 6 -163 -6 -200 -15 -11 -3 -26 -6
-34 -6 -7 -1 -11 -7 -8 -14 3 -9 -9 -13 -45 -15 -28 -1 -55 -5 -61 -9 -18 -11
-61 -10 -69 1 -5 7 -8 5 -8 -4 0 -13 -20 -15 -136 -12 -75 2 -144 0 -153 -4
-27 -12 -41 -13 -41 -2 0 5 -24 8 -57 7 -37 -2 -58 1 -61 9 -2 7 -8 9 -13 6
-6 -4 -6 -10 0 -18 11 -13 12 -13 -88 0 -25 4 -51 13 -59 20 -7 8 -22 14 -32
14 -10 0 -20 6 -23 14 -7 19 -107 33 -117 16 -18 -29 34 -79 84 -81 12 0 15
-3 9 -6 -7 -2 -13 -13 -13 -23 0 -18 -52 -44 -64 -33 -3 4 -6 1 -6 -5 0 -7 -6
-12 -14 -12 -8 0 -16 -4 -18 -10 -12 -37 -324 -38 -413 -1 -11 5 -37 16 -58
25 -21 9 -45 16 -53 16 -15 0 -62 29 -96 60 -15 13 -61 38 -136 73 -16 8 -26
7 -34 -1 -9 -9 -7 -12 9 -12 21 0 42 -35 29 -47 -3 -4 -6 -1 -6 6 0 7 -5 9
-10 6 -11 -7 -45 11 -71 37 -18 18 -66 37 -104 40 -28 3 -31 0 -54 -67 -13
-38 -29 -73 -35 -77 -6 -4 -7 -8 -3 -8 4 0 3 -9 -3 -20 -9 -16 -15 -18 -36
-10 -17 7 -23 7 -19 0 4 -6 -32 -10 -99 -10 -59 0 -108 -4 -111 -10 -7 -12
-55 -13 -55 -2 0 11 -30 9 -55 -5 -11 -6 -26 -8 -34 -5 -18 6 -118 -16 -154
-34 -16 -8 -56 -14 -88 -14 -33 0 -68 -4 -78 -10 -23 -12 -94 -18 -251 -21
-121 -2 -170 3 -170 21 0 14 -74 17 -107 3 -18 -7 -46 -13 -63 -13 -19 0 -30
-5 -30 -14 0 -11 -21 -14 -105 -14 -57 -1 -107 4 -110 9 -4 5 -26 9 -51 9 -32
0 -44 4 -44 14 0 21 -19 30 -35 16 -12 -10 -19 -8 -34 11 -17 21 -29 24 -107
28 -85 3 -175 -10 -221 -32 -22 -10 -55 -4 -135 25 -17 7 -33 6 -46 -1 -12 -6
-37 -11 -56 -11 -20 0 -36 -4 -36 -10 0 -5 -20 -10 -45 -10 -25 0 -45 4 -45
10 0 5 -14 13 -32 18 -40 10 -47 29 -16 42 17 7 7 8 -37 3 -33 -3 -82 -5 -110
-3 -27 2 -61 3 -75 2 -134 -4 -245 -1 -254 7 -12 10 -147 28 -208 28 -39 -1
-63 12 -40 20 7 3 20 12 28 21 15 14 14 17 -7 25 -25 10 -184 13 -254 5 -23
-3 -43 0 -47 6 -7 11 0 54 12 71 4 6 12 37 19 70 7 33 19 86 27 117 8 32 14
69 14 82 0 14 5 28 10 31 5 3 10 18 10 33 0 15 7 49 15 76 8 27 15 64 15 82 0
18 5 36 10 39 5 3 10 20 10 37 0 18 4 45 10 62 5 17 17 67 26 111 9 44 24 107
34 140 10 33 21 83 24 110 4 28 13 62 19 77 13 30 22 30 82 3 32 -14 125 -9
125 6 0 5 14 9 30 9 17 0 31 3 31 8 1 4 3 18 4 31 3 33 31 46 95 42 44 -2 61
2 82 19 21 16 31 18 45 11 10 -6 44 -22 76 -36 31 -15 57 -33 57 -41 0 -8 5
-14 10 -14 6 0 10 -9 10 -20 0 -41 62 -12 80 37 l12 36 14 -32 13 -31 69 6
c47 5 71 3 76 -5 4 -7 39 -11 88 -11 48 0 90 -5 106 -14 71 -37 83 -40 100
-29 23 14 21 37 -3 41 -27 5 -46 22 -39 34 4 6 21 7 43 3 20 -4 136 -7 257 -6
220 2 221 2 227 -20 4 -15 11 -20 22 -15 9 3 27 6 39 6 15 0 25 9 33 30 6 16
19 33 29 37 10 4 28 17 40 30 12 13 29 23 38 23 9 0 23 6 30 12 11 11 9 17
-12 35 -41 35 -74 45 -105 34 -15 -6 -27 -15 -27 -21 0 -5 -13 -10 -29 -10
-16 0 -31 -6 -34 -13 -10 -26 -182 -57 -214 -38 -10 6 -12 11 -5 11 7 0 17 11
22 25 8 20 16 25 47 25 81 1 153 29 153 59 0 13 -45 25 -59 16 -11 -6 -61 40
-61 56 0 5 20 9 44 9 25 0 48 5 51 10 3 6 18 10 32 10 26 0 26 0 7 21 -26 29
-6 38 67 32 51 -5 59 -3 66 13 3 11 11 22 17 26 7 5 7 8 -1 8 -7 0 -13 4 -13
9 0 5 35 12 78 16 110 10 130 13 140 18 4 3 40 7 80 8 40 2 72 7 72 11 0 11
38 10 45 -1 8 -15 73 -5 103 16 l27 18 -52 3 c-29 2 -53 7 -53 11 0 5 -9 11
-21 14 -12 3 -18 10 -14 16 3 7 0 8 -9 5 -9 -3 -13 -11 -10 -18 3 -6 0 -4 -8
4 -7 8 -23 14 -35 12 -16 -2 -23 2 -23 12 0 14 -20 16 -157 13 -98 -1 -162 -6
-170 -13 -8 -8 -27 -8 -60 -2 -26 5 -55 9 -63 8 -8 -1 -50 -3 -92 -6 -80 -6
-92 0 -63 30 8 8 15 21 15 30 0 24 87 45 125 30 17 -6 56 -15 88 -19 53 -6 61
-4 83 16 38 35 16 49 -77 49 l-79 0 6 43 c4 23 10 47 14 52 4 6 10 21 13 35 4
23 16 58 37 115 5 11 16 47 25 80 25 87 32 112 60 196 14 41 25 83 25 92 0 10
4 25 9 35 5 9 17 46 26 82 9 36 21 73 26 82 5 10 9 25 9 33 0 12 19 15 115 15
l114 0 12 -42 c6 -24 15 -54 19 -68 4 -14 20 -65 35 -115 15 -49 38 -122 51
-162 13 -39 24 -78 24 -85 0 -8 11 -38 25 -66 14 -29 25 -58 25 -66 0 -8 4
-18 10 -21 6 -3 10 -16 11 -28 l0 -22 9 22 c10 24 34 31 45 13 4 -6 8 -47 11
-93 9 -171 13 -186 44 -202 16 -8 48 -15 72 -15 32 0 48 -6 61 -21 11 -12 25
-18 33 -15 9 3 24 6 35 6 12 0 23 10 29 26 6 14 14 22 20 19 6 -3 7 1 4 9 -7
17 11 22 21 6 3 -5 17 -10 31 -10 17 0 24 -6 24 -19 0 -12 9 -21 24 -25 25 -6
29 -27 8 -48 -21 -21 -13 -28 29 -28 29 0 38 3 33 12 -6 10 -5 10 7 1 16 -13
59 -14 59 -1 0 3 9 6 19 5 11 0 19 -6 18 -11 -1 -6 13 -10 32 -11 19 0 36 -6
39 -12 2 -8 22 -13 53 -13 27 0 49 -4 49 -10 0 -5 12 -12 28 -16 60 -13 83
-26 71 -40 -6 -8 -25 -14 -41 -14 -17 0 -48 -10 -69 -22 -50 -28 -53 -64 -9
-96 16 -12 33 -22 38 -22 5 0 15 -7 22 -15 11 -13 8 -15 -14 -15 -15 0 -41 7
-58 16 -22 11 -33 13 -41 5 -6 -6 -31 -11 -56 -11 -51 0 -64 -6 -74 -32 -8
-22 -31 -22 -116 -2 -71 17 -159 9 -153 -14 1 -8 -7 -11 -23 -8 -19 4 -25 0
-25 -12 0 -21 34 -52 56 -52 8 0 13 -4 10 -9 -4 -5 0 -12 6 -15 9 -4 8 -5 -2
-5 -59 4 -90 -2 -90 -17 0 -12 -6 -15 -24 -10 -77 19 -177 28 -190 17 -10 -8
-30 -10 -59 -6 -33 5 -48 3 -60 -9 -8 -9 -24 -16 -35 -16 -12 0 -28 -14 -41
-36 -19 -32 -23 -34 -37 -20 -27 28 -62 20 -86 -19 -20 -35 -21 -36 -85 -34
-46 1 -68 -2 -74 -12 -16 -25 -5 -42 39 -57 38 -12 59 -42 30 -42 -6 0 -8 -3
-4 -7 4 -4 23 -6 43 -5 40 3 93 -14 93 -30 0 -5 13 -7 31 -3 22 5 36 2 50 -11
11 -10 27 -19 37 -20 9 -2 36 -6 58 -10 39 -6 42 -5 52 24 10 29 12 29 79 31
66 1 126 14 150 33 7 5 14 5 18 -2 9 -15 45 -12 45 4 0 10 16 14 64 14 35 0
71 4 81 9 12 7 28 5 54 -7 20 -10 49 -20 64 -24 25 -6 30 -3 40 24 11 30 13
31 62 25 48 -6 52 -5 88 31 41 41 47 64 18 64 -10 0 -24 7 -31 15 -7 8 -16 15
-21 15 -4 0 -20 5 -36 12 -15 7 -43 12 -62 13 -22 0 -38 7 -47 20 -13 19 -11
20 71 20 68 0 88 4 102 18 15 15 16 19 4 26 -8 5 -23 8 -33 6 -10 -2 -22 5
-29 17 -11 20 -9 20 27 13 22 -3 41 -11 42 -16 2 -5 19 -9 37 -9 19 0 35 -6
38 -14 3 -8 23 -16 44 -19 21 -3 65 -11 98 -16 33 -6 77 -8 97 -5 52 8 78 -2
78 -32 0 -13 4 -24 9 -24 5 0 13 -9 16 -20 5 -14 15 -20 37 -20 26 0 29 3 24
20 -3 11 -9 29 -12 40 -10 32 40 27 64 -7 19 -26 22 -26 46 -14 32 17 137 17
179 0 27 -11 32 -10 48 10 17 20 20 21 34 8 10 -11 29 -14 61 -12 26 2 49 6
51 9 9 8 -21 33 -35 28 -6 -2 -12 1 -12 7 0 6 7 11 15 11 8 0 15 5 15 10 0 20
67 10 105 -16 26 -17 48 -24 67 -22 27 4 28 3 23 -24 -5 -21 -3 -28 9 -28 9 0
16 -4 16 -10 0 -19 17 -10 30 17 9 19 15 23 17 13 2 -8 22 -21 44 -28 44 -14
61 -27 72 -54 7 -21 -17 -48 -42 -48 -17 0 -51 -29 -51 -44 0 -14 29 -36 47
-36 10 0 24 -4 32 -9 21 -14 37 8 44 61 4 25 16 63 27 82 11 20 20 43 20 51 0
19 9 19 32 -2 17 -15 18 -15 18 1 0 9 -4 15 -9 11 -5 -3 -12 -1 -16 5 -7 11
17 40 34 40 5 0 13 5 17 12 5 7 2 8 -7 3 -11 -6 -11 -5 -2 5 6 7 9 18 7 25 -3
7 0 16 6 20 12 7 70 -15 70 -27 0 -5 11 -8 25 -8 14 0 25 -6 25 -13 0 -8 11
-20 25 -27 29 -16 32 -28 8 -36 -10 -3 -28 -11 -41 -17 -21 -10 -22 -12 -7
-23 14 -10 14 -12 0 -17 -8 -4 -12 -13 -9 -22 3 -8 1 -15 -5 -15 -8 0 -6 -10
4 -30 9 -17 13 -35 9 -41 -7 -12 26 -79 39 -79 13 0 57 -52 57 -68 0 -10 7
-13 25 -10 16 4 30 -1 42 -14 11 -13 25 -17 40 -13 28 7 219 7 251 1 13 -3 22
0 22 8 0 29 88 43 333 50 75 3 141 7 145 10 5 3 50 7 100 10 80 4 96 8 122 30
17 13 39 28 50 31 23 7 50 -10 50 -30 0 -19 75 -29 111 -15 16 7 38 10 49 7
12 -3 30 4 47 19 15 13 31 24 36 24 4 0 7 8 7 18 0 14 2 15 9 2 12 -18 80 -19
91 0 7 12 12 12 22 2 23 -23 48 -14 48 18 0 17 -4 30 -9 30 -22 0 -40 31 -35
59 4 18 0 33 -10 44 -9 8 -16 27 -16 41 0 14 -4 27 -8 30 -11 7 -7 86 7 123 7
17 19 34 27 37 18 7 44 -3 44 -16 0 -6 9 -8 20 -5 11 3 20 1 20 -4 0 -5 8 -9
18 -9 10 0 23 -5 30 -12 9 -9 12 -9 12 0 0 7 11 12 25 12 18 0 26 7 31 25 10
41 84 46 121 9 33 -32 38 -11 41 164 l2 172 -25 0 c-23 0 -26 -3 -21 -30 2
-17 1 -30 -3 -30 -4 0 -13 -17 -20 -38 -7 -20 -25 -55 -40 -77 -24 -35 -32
-40 -69 -41 -23 -1 -42 2 -42 7 0 5 -11 9 -24 9 -16 0 -26 -7 -29 -22 -5 -17
-9 -19 -20 -10 -11 9 -21 8 -45 -4 -39 -19 -52 -12 -52 30 0 18 -3 36 -7 40
-4 3 -8 12 -9 19 -2 7 -6 25 -9 41 -5 27 -59 85 -78 86 -18 0 -47 -22 -47 -35
0 -8 -4 -15 -8 -15 -14 0 -42 35 -42 53 0 9 -16 34 -35 54 -19 20 -35 47 -35
60 0 19 -20 39 -42 42 -5 1 -10 2 -13 2 -3 1 -9 2 -14 3 -5 0 -23 13 -41 28
-30 24 -31 29 -22 60 5 18 10 52 11 76 2 37 -1 42 -21 42 -31 0 -97 48 -104
76 -3 13 -10 22 -14 19 -5 -3 -10 0 -12 7 -3 8 -12 8 -36 -3 -18 -8 -32 -17
-32 -21 0 -5 -7 -8 -15 -8 -8 0 -15 -4 -15 -9 0 -10 -85 -101 -94 -101 -3 0
-10 10 -17 21 -8 15 -8 19 0 15 7 -5 11 3 11 21 0 15 7 41 15 57 8 15 15 38
15 50 0 11 4 27 9 35 10 16 -8 53 -21 45 -8 -5 -10 13 -13 85 0 19 -6 36 -13
39 -7 2 -12 10 -12 18 0 8 -5 14 -12 14 -6 0 -9 3 -6 6 12 11 -44 55 -61 49
-9 -4 -29 -11 -45 -16 -28 -8 -28 -8 -22 23 3 18 10 34 14 38 17 12 42 61 42
81 0 13 5 37 12 56 11 29 10 35 -10 56 -13 13 -25 41 -29 61 -3 20 -11 36 -17
36 -18 1 -56 37 -56 54 0 9 -3 15 -7 15 -21 -3 -33 2 -27 12 3 6 0 15 -7 20
-10 6 -11 11 -3 17 6 4 14 16 18 27 3 11 22 37 41 59 39 42 42 48 21 40 -10
-4 -15 5 -18 30 -2 20 0 37 6 39 9 3 16 23 19 60 1 12 -14 27 -48 45 -59 32
-86 58 -78 78 3 8 16 14 29 14 13 0 24 5 24 10 0 6 7 10 15 10 8 0 19 9 25 20
9 17 0 30 -73 102 -105 105 -114 126 -93 209 20 82 38 107 81 115 36 6 181
-22 191 -38 10 -16 71 -8 89 12 19 21 64 24 77 5 4 -5 8 20 8 58 0 75 6 80 72
52 33 -13 37 -13 56 6 12 11 24 19 27 19 18 1 34 15 39 36 5 19 11 24 26 19
26 -8 40 21 33 72 -3 23 -2 54 1 69 l7 27 22 -30 c12 -17 31 -42 42 -57 24
-31 53 -33 83 -6 12 11 31 22 44 23 16 3 26 14 32 38 15 55 41 60 66 13 9 -17
22 -24 42 -24 16 0 31 -6 34 -13 12 -33 134 1 134 38 0 8 5 15 10 15 6 0 10 6
10 14 0 23 29 27 40 6 5 -10 10 -49 10 -85 0 -75 10 -92 69 -112 55 -19 86
-16 120 14 l31 27 0 378 c0 232 -4 378 -10 378 -5 0 -13 -7 -18 -15 -9 -17
-42 -10 -42 9 0 6 -12 22 -25 35 -40 37 -42 66 -9 128 l29 54 -22 19 c-13 10
-23 23 -23 29 0 14 23 14 37 0 13 -13 33 -4 33 17 0 10 -13 14 -46 14 -39 0
-45 -3 -40 -16 6 -16 -13 -74 -25 -74 -3 0 -15 9 -27 20 -12 11 -30 20 -41 20
-13 0 -21 8 -23 23 l-3 22 -4122 3 -4123 2 0 -1865z m1077 1823 c-3 -8 -6 -5
-6 6 -1 11 2 17 5 13 3 -3 4 -12 1 -19z m39 -78 c8 0 14 -4 14 -8 0 -16 79
-92 95 -92 8 0 15 -4 15 -10 0 -14 -8 -13 -50 11 -20 11 -45 35 -55 52 -10 18
-24 36 -32 40 -7 4 -12 18 -12 30 l2 22 4 -22 c2 -13 11 -23 19 -23z m169
-210 c11 -17 23 -30 28 -30 4 0 7 -13 7 -30 0 -16 5 -30 10 -30 6 0 10 -9 10
-20 0 -35 -18 -21 -25 19 -3 21 -15 48 -26 59 -10 12 -19 26 -19 32 0 5 -4 10
-9 10 -5 0 -11 7 -14 14 -10 25 16 8 38 -24z m1582 5 c-15 -16 -22 -11 -13 10
3 9 10 13 16 10 6 -4 5 -11 -3 -20z m-1517 -180 c0 -7 -7 -18 -15 -25 -13 -11
-15 -7 -15 25 0 32 2 36 15 25 8 -7 15 -18 15 -25z m1513 5 c17 -17 27 -37 24
-47 -4 -15 -5 -15 -6 2 -1 11 -15 29 -31 40 -16 11 -30 23 -30 28 0 14 16 6
43 -23z m64 -132 c-3 -8 -6 -5 -6 6 -1 11 2 17 5 13 3 -3 4 -12 1 -19z m-1603
-33 c-4 -8 -10 -15 -15 -15 -5 0 -9 -18 -9 -40 0 -22 5 -40 10 -40 6 0 10 -10
10 -22 -1 -23 -1 -23 -15 2 -17 30 -19 84 -5 111 12 22 32 26 24 4z m1597 -65
c5 0 9 -21 9 -47 0 -51 -12 -52 -17 0 -7 80 -10 109 -6 80 2 -18 8 -33 14 -33z
m-1589 -112 c-9 -9 -12 -7 -12 12 0 19 3 21 12 12 9 -9 9 -15 0 -24z m1595
-30 c-3 -7 -5 -2 -5 12 0 14 2 19 5 13 2 -7 2 -19 0 -25z m-1599 -107 c-7 -11
-16 -21 -20 -21 -5 0 -9 -10 -9 -22 -1 -19 -2 -20 -6 -4 -6 23 28 89 40 77 5
-5 3 -18 -5 -30z m-1111 -43 c-3 -8 -6 -5 -6 6 -1 11 2 17 5 13 3 -3 4 -12 1
-19z m2710 -70 c-3 -8 -6 -5 -6 6 -1 11 2 17 5 13 3 -3 4 -12 1 -19z m-2768
-48 c-60 -79 -86 -103 -100 -95 -11 7 -8 11 11 15 14 3 26 14 28 24 4 18 74
97 81 90 2 -2 -7 -17 -20 -34z m1131 27 c0 -7 -16 -28 -35 -47 -19 -19 -35
-40 -35 -47 0 -7 -4 -13 -10 -13 -19 0 -10 22 25 58 19 20 35 43 35 50 0 6 5
12 10 12 6 0 10 -6 10 -13z m1564 -126 c-5 -3 -16 -19 -23 -36 -7 -16 -15 -25
-18 -19 -2 6 6 29 19 49 12 22 24 33 26 25 3 -7 0 -15 -4 -19z m-2818 -33
c-11 -15 -16 -18 -16 -7 0 16 21 42 28 34 2 -2 -3 -14 -12 -27z m1127 -71
c-21 -32 -39 -53 -41 -47 -2 6 3 19 12 29 9 10 16 23 16 29 0 7 5 12 10 12 6
0 10 7 10 15 0 8 5 15 10 15 6 0 11 8 11 18 1 14 2 14 6 1 2 -8 -13 -41 -34
-72z m1644 -9 c-3 -7 -5 -2 -5 12 0 14 2 19 5 13 2 -7 2 -19 0 -25z m-31 -100
c-10 -14 -17 -46 -17 -83 l-2 -60 -7 49 c-6 46 5 104 23 122 4 4 8 19 9 33 1
21 2 20 5 -6 3 -20 -2 -42 -11 -55z m-1652 -40 c8 -81 23 -139 40 -150 15 -10
12 -181 -3 -186 -14 -5 -15 -32 -1 -32 6 0 10 -9 10 -20 0 -11 -4 -20 -9 -20
-12 0 -24 66 -16 90 3 11 1 29 -6 41 -10 19 -8 25 12 40 l24 18 -20 33 c-10
18 -27 42 -37 52 -15 16 -18 37 -18 113 0 51 4 93 9 93 4 0 11 -33 15 -72z
m1598 -195 c-3 -48 0 -62 17 -80 23 -25 28 -47 9 -41 -7 3 -14 14 -16 26 -2
12 -8 22 -13 22 -5 0 -9 29 -9 65 0 36 3 65 8 65 4 0 6 -26 4 -57z m-2695 -45
c-3 -7 -5 -2 -5 12 0 14 2 19 5 13 2 -7 2 -19 0 -25z m2740 -297 c-6 -57 -9
-61 -85 -140 -78 -80 -79 -82 -75 -124 5 -39 2 -46 -31 -79 -33 -33 -36 -41
-36 -95 0 -33 3 -63 8 -67 8 -8 28 -116 38 -208 7 -58 18 -74 28 -40 11 36 65
346 73 419 8 75 22 84 124 81 l84 -3 -1 -30 c-1 -16 -7 -55 -13 -85 -5 -30
-15 -80 -20 -110 -6 -30 -14 -71 -20 -90 -19 -70 -30 -117 -46 -200 -9 -47
-20 -101 -25 -120 -5 -19 -11 -48 -14 -65 -6 -39 -25 -125 -32 -147 -5 -15
-18 -18 -92 -18 -48 0 -93 4 -99 8 -13 8 -25 56 -43 167 -6 33 -15 83 -20 110
-6 28 -15 79 -21 115 -15 94 -25 104 -38 39 -26 -127 -30 -171 -19 -213 9 -35
8 -48 -5 -76 -10 -18 -17 -40 -17 -49 0 -9 -7 -29 -15 -45 -8 -15 -15 -33 -15
-38 0 -6 -9 -19 -21 -29 -14 -12 -20 -28 -19 -51 3 -51 1 -58 -15 -58 -22 0
-24 78 -3 91 24 15 -7 29 -66 29 -39 0 -67 5 -73 13 -5 6 -17 48 -27 92 -9 44
-21 96 -26 115 -5 19 -16 71 -25 115 -9 44 -20 96 -25 115 -4 19 -16 69 -25
110 -9 41 -20 91 -25 110 -18 69 -40 169 -40 178 0 11 160 25 183 16 9 -3 17
-13 17 -22 0 -9 4 -29 9 -46 5 -17 17 -76 26 -131 9 -55 21 -118 25 -140 5
-22 12 -65 16 -95 10 -86 18 -99 31 -53 10 34 41 182 63 303 23 127 35 176 44
182 6 4 36 8 67 8 50 0 57 -3 67 -25 7 -14 12 -34 12 -45 0 -30 23 -29 53 4
24 25 28 36 23 65 -8 50 8 73 114 164 39 34 60 73 60 112 0 19 3 35 6 35 4 0
4 -26 1 -59z m566 -260 l107 -1 0 -90 c0 -63 -4 -92 -12 -95 -7 -3 -78 -6
-158 -7 l-145 -3 -3 -54 c-4 -61 8 -82 32 -58 9 9 16 20 16 26 0 17 60 13 66
-4 5 -12 25 -15 93 -15 47 0 93 -5 101 -10 11 -7 14 -29 12 -107 -2 -54 -6
-100 -9 -103 -2 -3 -71 -5 -151 -5 l-147 0 0 -25 c0 -25 2 -25 97 -30 58 -3
102 -10 110 -18 7 -7 37 -12 70 -12 56 0 58 -1 48 -20 -6 -11 -10 -35 -8 -53
5 -53 -13 -175 -27 -187 -10 -8 -19 -8 -34 -1 -12 7 -100 11 -230 11 -190 0
-211 2 -219 18 -6 10 -8 175 -6 392 2 206 4 394 4 417 l0 42 143 -3 c78 -2
190 -4 250 -5z m1313 2 c11 -4 14 -28 14 -104 l0 -99 -96 0 -95 0 6 -102 c3
-57 8 -205 11 -330 4 -183 2 -228 -8 -229 -48 -5 -174 5 -181 15 -5 6 -6 154
-2 329 l6 317 -85 0 c-55 0 -87 4 -93 13 -6 6 -13 49 -16 95 -4 69 -3 84 11
92 18 10 502 13 528 3z m244 -153 l5 -155 123 -5 c87 -4 127 -2 133 7 6 6 9
74 8 151 0 78 2 146 6 151 8 13 144 14 164 2 12 -8 15 -84 19 -435 l5 -426
-97 0 c-93 0 -96 1 -96 23 -1 12 -1 85 0 163 1 113 -2 143 -14 153 -10 9 -50
11 -133 9 l-118 -3 4 -172 3 -173 -96 0 -96 0 0 429 c0 334 3 430 13 435 6 2
46 4 87 3 l75 -2 5 -155z m1048 148 c14 -14 16 -156 3 -176 -6 -10 -46 -14
-157 -15 l-149 -2 0 -53 c-1 -29 2 -57 5 -62 3 -5 71 -11 150 -12 l145 -3 3
-97 3 -98 -150 0 c-110 0 -150 -3 -154 -12 -2 -7 -2 -39 1 -70 l4 -57 152 -3
151 -3 5 -75 c3 -41 4 -85 2 -97 l-3 -23 -250 0 -249 0 0 428 c0 236 3 432 7
435 12 13 468 8 481 -5z m548 -13 c50 -32 84 -72 110 -130 23 -50 26 -66 22
-148 -4 -106 -29 -171 -85 -220 -34 -30 -39 -45 -24 -75 36 -69 61 -126 61
-138 0 -8 5 -14 10 -14 6 0 10 -8 10 -18 0 -10 7 -27 15 -38 8 -10 15 -29 15
-42 0 -22 -2 -23 -101 -20 -78 2 -104 6 -110 18 -10 20 -33 77 -49 120 -6 19
-16 44 -21 55 -4 11 -15 37 -23 58 -15 36 -18 38 -53 35 l-38 -3 3 -130 c2
-71 -1 -136 -6 -143 -6 -9 -33 -12 -93 -10 l-84 3 -3 424 c-2 333 1 427 10
433 7 5 101 8 209 6 172 -3 199 -6 225 -23z m-3638 -874 c-7 -12 -18 -21 -25
-21 -6 0 -14 -6 -16 -12 -4 -10 -6 -10 -6 -1 -1 7 6 18 14 25 9 7 21 18 28 24
18 17 20 9 5 -15z m267 -31 c3 -5 0 -10 -8 -10 -7 0 -24 -11 -37 -25 -37 -40
-68 -29 -56 21 6 21 12 24 51 24 24 0 47 -4 50 -10z m-1252 -237 c-7 -2 -21
-2 -30 0 -10 3 -4 5 12 5 17 0 24 -2 18 -5z m-366 -235 c-3 -8 -6 -5 -6 6 -1
11 2 17 5 13 3 -3 4 -12 1 -19z m312 -3 c5 2 14 -2 21 -10 10 -12 9 -15 -7
-15 -10 0 -24 -5 -31 -12 -17 -17 -23 -6 -16 32 6 26 9 29 16 16 5 -9 13 -14
17 -11z m3431 -38 c0 -5 -4 -5 -10 -2 -5 3 -10 14 -10 23 0 15 2 15 10 2 5 -8
10 -19 10 -23z m-617 1 c7 -7 13 -21 13 -30 1 -14 -4 -16 -30 -11 -42 8 -50
17 -31 37 20 19 32 20 48 4z m67 -38 c0 -5 -4 -10 -9 -10 -6 0 -13 5 -16 10
-3 6 1 10 9 10 9 0 16 -4 16 -10z m1660 -15 c0 -16 -6 -25 -15 -25 -18 0 -19
16 -2 35 16 19 17 19 17 -10z m-4520 -51 c0 -26 -4 -34 -18 -34 -29 0 -62 29
-62 55 0 28 16 35 53 22 22 -7 27 -15 27 -43z m77 11 c7 -21 -1 -28 -25 -21
-32 10 -36 36 -6 36 13 0 27 -7 31 -15z m2283 -143 c0 -5 -9 -17 -21 -28 -20
-18 -51 -12 -50 11 0 16 71 33 71 17z m3344 -1013 c13 -15 16 -32 13 -60 -4
-38 -3 -39 27 -40 17 0 25 -3 18 -6 -7 -3 -28 -2 -46 1 -28 5 -32 10 -29 30 3
13 0 27 -6 30 -12 8 -15 66 -3 66 4 0 16 -9 26 -21z m48 -21 c-9 -9 -12 -7
-12 12 0 19 3 21 12 12 9 -9 9 -15 0 -24z m-402 -68 c0 -5 -2 -10 -4 -10 -3 0
-8 5 -11 10 -3 6 -1 10 4 10 6 0 11 -4 11 -10z m-396 -36 c3 -8 2 -12 -4 -9
-6 3 -10 10 -10 16 0 14 7 11 14 -7z m203 -16 c-3 -7 -5 -2 -5 12 0 14 2 19 5
13 2 -7 2 -19 0 -25z m222 -35 c0 -16 -3 -22 -6 -15 -2 6 -13 12 -24 12 -26 0
-24 18 4 23 12 2 23 5 25 6 1 0 2 -11 1 -26z m98 -15 c-3 -7 -5 -2 -5 12 0 14
2 19 5 13 2 -7 2 -19 0 -25z m-5437 -48 c0 -5 -9 -10 -20 -10 -11 0 -20 5 -20
10 0 6 9 10 20 10 11 0 20 -4 20 -10z"/>
<path d="M3198 2733 c6 -2 18 -2 25 0 6 3 1 5 -13 5 -14 0 -19 -2 -12 -5z"/>
<path d="M3400 2400 c0 -5 5 -10 10 -10 6 0 10 5 10 10 0 6 -4 10 -10 10 -5 0
-10 -4 -10 -10z"/>
<path d="M6228 2834 c-9 -9 -11 -136 -2 -158 5 -13 22 -16 81 -16 66 0 77 3
100 26 22 22 25 32 21 69 -8 65 -28 79 -117 83 -42 2 -79 0 -83 -4z"/>
<path d="M3816 2788 c-2 -7 -11 -42 -21 -78 -9 -36 -21 -75 -26 -88 -5 -13 -9
-33 -9 -45 0 -13 -5 -28 -11 -34 -7 -7 -9 -19 -6 -27 5 -13 22 -16 81 -16 41
0 77 4 81 9 5 9 -18 112 -35 156 -4 11 -14 46 -21 78 -12 54 -25 72 -33 45z"/>
<path d="M3685 2269 c-4 -17 -4 -33 0 -37 11 -12 120 -30 130 -22 16 12 69 21
81 12 6 -4 23 -33 38 -64 l27 -58 62 -1 c93 -2 109 1 133 24 l22 21 -30 13
c-17 7 -57 13 -89 13 -61 0 -79 13 -79 57 0 11 -6 31 -12 46 l-13 27 -132 0
-131 0 -7 -31z"/>
<path d="M3625 1870 c3 -5 8 -10 11 -10 2 0 4 5 4 10 0 6 -5 10 -11 10 -5 0
-7 -4 -4 -10z"/>
<path d="M18 1514 c-10 -9 -9 -117 2 -199 6 -54 7 -56 9 -17 0 23 5 42 10 42
8 0 21 48 21 75 0 26 -13 75 -20 75 -5 0 -10 7 -12 16 -2 9 -6 12 -10 8z"/>
<path d="M2050 1462 c0 -12 34 -42 48 -42 17 0 15 16 -4 34 -16 17 -44 22 -44
8z"/>
<path d="M6370 1432 c0 -16 24 -42 39 -42 6 0 11 3 11 6 0 9 -30 36 -30 27 0
-4 -5 -1 -10 7 -7 11 -10 12 -10 2z"/>
<path d="M2270 1361 c0 -24 16 -36 65 -48 50 -11 76 -7 68 13 -3 9 -19 14 -44
14 -27 0 -39 4 -39 14 0 13 -20 26 -41 26 -5 0 -9 -8 -9 -19z"/>
<path d="M6436 1305 c4 -8 13 -15 21 -15 12 0 12 2 -1 15 -8 8 -17 15 -20 15
-3 0 -3 -7 0 -15z"/>
<path d="M4581 1251 c-11 -7 -12 -13 -4 -23 6 -7 13 -28 15 -45 4 -27 1 -33
-14 -33 -10 0 -18 -4 -18 -10 0 -22 -2 -25 -23 -36 -22 -13 -51 -8 -42 7 3 4
-10 3 -29 -4 -19 -7 -36 -16 -36 -21 -1 -10 66 -35 90 -34 39 3 50 -3 50 -25
0 -13 5 -28 12 -35 15 -15 124 -16 133 -1 5 6 22 8 47 4 28 -5 44 -3 56 8 22
20 262 36 262 17 0 -6 10 -10 23 -8 18 2 24 12 30 48 16 91 20 160 9 160 -6 0
-12 -4 -14 -9 -1 -5 -61 -14 -133 -21 -71 -6 -149 -14 -173 -17 -37 -4 -45 -2
-63 21 -17 21 -24 24 -35 15 -8 -6 -14 -18 -14 -25 0 -8 -9 -15 -20 -15 -11
-1 -28 -2 -37 -3 -23 -1 -36 49 -17 65 27 22 -24 40 -55 20z"/>
<path d="M6108 1243 c7 -3 16 -2 19 1 4 3 -2 6 -13 5 -11 0 -14 -3 -6 -6z"/>
<path d="M27 1193 c-4 -3 -7 -42 -7 -86 0 -88 7 -95 21 -21 5 27 13 50 18 54
5 3 13 18 16 33 6 24 4 27 -17 27 -14 0 -28 -3 -31 -7z"/>
<path d="M5418 1095 c12 -15 22 -36 22 -46 0 -11 6 -19 13 -20 27 -3 63 3 72
12 5 5 19 9 32 9 54 0 14 34 -59 50 -24 5 -56 12 -72 16 l-30 7 22 -28z"/>
<path d="M4263 1072 c-10 -6 -10 -15 -1 -40 12 -31 31 -41 42 -23 3 4 19 11
36 14 42 9 38 34 -7 46 -45 13 -54 13 -70 3z"/>
<path d="M7115 1040 c-11 -5 -37 -9 -57 -9 -21 -1 -38 -4 -38 -8 1 -20 19 -28
65 -27 84 0 93 3 91 22 -2 30 -24 38 -61 22z"/>
<path d="M4150 1010 c0 -5 7 -10 15 -10 8 0 15 5 15 10 0 6 -7 10 -15 10 -8 0
-15 -4 -15 -10z"/>
<path d="M7100 940 c0 -5 19 -10 43 -10 31 0 38 3 27 10 -20 13 -70 13 -70 0z"/>
<path d="M2885 910 c-3 -5 -23 -15 -45 -21 -21 -7 -41 -18 -44 -26 -7 -18 43
-38 58 -23 12 12 26 13 26 2 0 -4 -15 -16 -32 -27 -69 -40 -67 -61 9 -71 99
-13 103 -15 103 -34 0 -22 55 -50 96 -50 17 0 22 -4 18 -15 -5 -11 1 -15 24
-15 17 0 34 -4 37 -10 3 -5 43 -10 87 -10 63 0 83 4 93 16 10 15 15 14 50 -5
51 -27 57 -27 53 7 -3 26 -6 27 -60 30 -40 2 -58 7 -58 16 0 17 27 28 49 21
24 -7 52 21 67 68 4 11 17 17 40 17 45 0 84 16 84 35 0 17 -45 21 -55 5 -3 -5
-26 -10 -50 -10 -35 0 -45 4 -50 21 -4 12 -12 18 -21 15 -8 -3 -21 -9 -29 -12
-8 -3 -15 -2 -15 4 0 20 -35 22 -84 5 -28 -10 -56 -25 -63 -33 -10 -12 -15
-13 -32 -3 -17 11 -23 10 -41 -9 -18 -19 -24 -21 -49 -11 -20 7 -33 7 -40 0
-7 -7 -21 1 -46 27 -21 20 -41 36 -46 36 -5 0 -9 7 -9 15 0 8 5 15 10 15 6 0
10 9 10 20 0 21 -33 29 -45 10z"/>
<path d="M5488 903 c-57 -3 -68 -7 -68 -22 0 -9 -6 -25 -13 -36 -13 -17 -17
-17 -60 -2 -27 9 -47 12 -47 6 0 -19 -38 -51 -77 -64 -30 -11 -34 -15 -20 -20
10 -5 17 -18 17 -35 0 -16 4 -31 9 -34 20 -13 196 -14 237 -1 28 8 42 9 37 2
-4 -7 0 -8 13 -3 10 4 28 9 39 10 11 2 30 8 42 14 24 13 113 16 113 4 0 -4 12
-9 26 -10 31 -2 55 -24 52 -49 -4 -51 -2 -53 70 -51 37 0 78 -4 90 -11 15 -8
28 -9 41 -1 12 6 21 6 23 0 4 -13 48 0 48 15 0 6 -9 20 -20 30 -11 10 -20 21
-20 25 0 3 16 23 35 44 39 43 40 45 22 70 -10 14 -32 19 -93 23 -43 3 -88 10
-99 16 -25 14 -35 16 -110 28 -33 5 -69 11 -80 13 -11 3 -23 5 -27 5 -4 1 -13
7 -20 15 -18 17 -73 24 -160 19z"/>
<path d="M3844 866 c-3 -8 -5 -20 -3 -27 4 -32 -1 -42 -14 -31 -13 11 -76 -4
-93 -21 -12 -12 -50 -8 -80 8 -46 24 -75 18 -124 -25 -34 -30 -53 -40 -80 -40
l-35 0 24 -19 c20 -16 42 -19 115 -18 133 0 170 -16 100 -43 -34 -14 -35 -15
-13 -20 15 -4 24 -13 24 -25 0 -33 30 -49 68 -35 18 6 69 14 115 17 71 5 82 8
82 25 0 14 -7 18 -29 16 -16 -1 -36 4 -45 11 -8 7 -41 15 -73 18 -32 3 -60 7
-62 9 -16 15 83 22 312 22 147 1 273 4 279 9 12 7 160 19 313 27 33 1 70 -2
82 -7 15 -7 27 -6 35 0 7 6 67 11 133 12 142 1 204 9 207 25 4 33 5 83 1 99
-4 16 -11 18 -39 13 -18 -4 -42 -2 -53 3 -14 8 -31 6 -65 -10 -26 -11 -55 -17
-66 -14 -11 3 -37 -3 -61 -15 -23 -12 -52 -20 -64 -17 -13 2 -33 -2 -45 -8
-17 -9 -30 -9 -51 -1 -24 8 -36 7 -64 -8 -29 -16 -39 -17 -62 -7 -35 16 -164
24 -196 12 -17 -7 -48 -7 -89 0 -35 6 -98 11 -140 12 -43 0 -78 4 -78 9 0 4
-6 8 -14 8 -8 0 -17 6 -20 13 -5 10 -7 10 -12 0 -8 -19 -27 -16 -20 3 9 24 -3
36 -20 19 -19 -19 -33 -19 -40 0 -8 19 -33 20 -40 1z m66 -50 c0 -16 -19 -25
-37 -19 -9 4 -9 8 0 19 16 18 37 18 37 0z"/>
<path d="M7121 863 c-9 -10 -8 -13 4 -13 9 0 14 -4 11 -8 -2 -4 6 -9 20 -10
13 -1 24 3 24 10 0 6 8 4 18 -5 10 -10 35 -17 55 -17 30 0 35 3 30 18 -4 9
-14 23 -22 29 -20 16 -124 12 -140 -4z"/>
<path d="M6734 823 c-5 -18 -2 -30 10 -38 9 -7 16 -22 16 -34 0 -30 -38 -29
-42 2 -2 14 -11 23 -25 25 -23 3 -31 -12 -13 -23 6 -3 10 -18 10 -32 0 -18 4
-24 15 -20 8 4 17 1 21 -5 5 -7 9 -7 13 1 4 6 19 12 33 13 15 1 24 6 22 10 -3
4 13 8 36 8 26 0 39 4 35 10 -4 7 3 9 19 6 14 -3 26 -1 26 4 0 5 10 10 23 12
32 4 36 46 5 70 -18 14 -42 18 -110 18 -87 0 -88 0 -94 -27z"/>
<path d="M3128 833 c6 -2 18 -2 25 0 6 3 1 5 -13 5 -14 0 -19 -2 -12 -5z"/>
<path d="M6986 815 c4 -8 10 -15 15 -15 5 0 9 7 9 15 0 8 -7 15 -15 15 -9 0
-12 -6 -9 -15z"/>
<path d="M6544 801 c4 -5 -3 -7 -13 -4 -21 5 -81 -47 -81 -71 0 -18 48 -27 63
-12 17 16 56 19 71 7 10 -8 16 -4 26 15 16 29 3 60 -24 58 -9 -1 -16 2 -16 7
0 5 -7 9 -16 9 -8 0 -13 -4 -10 -9z"/>
<path d="M21 667 c-1 -117 12 -137 23 -35 5 45 3 75 -8 103 -14 40 -15 39 -15
-68z"/>
<path d="M5595 660 c-4 -6 6 -10 22 -10 22 0 25 2 13 10 -19 12 -27 12 -35 0z"/>
<path d="M6628 663 c6 -2 18 -2 25 0 6 3 1 5 -13 5 -14 0 -19 -2 -12 -5z"/>
<path d="M6670 649 c0 -5 5 -7 10 -4 6 3 10 8 10 11 0 2 -4 4 -10 4 -5 0 -10
-5 -10 -11z"/>
<path d="M3480 620 c-11 -7 -2 -10 33 -10 26 0 47 5 47 10 0 13 -60 13 -80 0z"/>
<path d="M4160 576 c-14 -9 -37 -15 -52 -16 -16 0 -28 -4 -28 -10 0 -5 -7 -10
-17 -10 -23 0 -10 -11 19 -16 12 -2 37 -6 53 -10 17 -3 66 0 110 6 44 7 107
15 140 19 44 4 60 10 60 21 0 11 -13 16 -45 17 -25 1 -83 5 -130 8 -65 4 -91
2 -110 -9z"/>
<path d="M4310 408 c-38 -11 -77 -16 -128 -17 -22 -1 -31 -5 -26 -12 4 -7 24
-9 58 -5 28 4 58 7 66 7 65 1 120 12 120 25 0 16 -37 17 -90 2z"/>
<path d="M2671 377 c-9 -12 -8 -16 5 -21 22 -9 56 3 51 17 -5 18 -42 20 -56 4z"/>
<path d="M2793 293 c9 -2 25 -2 35 0 9 3 1 5 -18 5 -19 0 -27 -2 -17 -5z"/>
<path d="M2830 211 c0 -5 -8 -12 -17 -15 -10 -2 -5 -4 11 -3 30 2 50 27 22 27
-9 0 -16 -4 -16 -9z"/>
<path d="M8265 130 c-3 -5 3 -10 15 -10 12 0 18 5 15 10 -3 6 -10 10 -15 10
-5 0 -12 -4 -15 -10z"/>
<path d="M6939 113 c0 -5 -2 -15 -4 -24 -2 -12 3 -15 21 -11 30 6 34 42 4 42
-11 0 -20 -3 -21 -7z"/>
<path d="M7170 86 c0 -9 40 -13 46 -5 3 5 -6 9 -20 9 -14 0 -26 -2 -26 -4z"/>
</g>
</svg>
